<svg id="Calque_1" data-name="Calque 1" xmlns="http://www.w3.org/2000/svg" width="1013.52" height="917.04" viewBox="0 0 1013.52 917.04"><defs><style>.cls-1,.cls-4{fill:#191919;}.cls-2{fill:#0b9d2d;}.cls-3{fill:#097923;}.cls-4{stroke:#000;stroke-miterlimit:10;stroke-width:4px;}</style></defs><title>Plan de travail 3</title><path class="cls-1" d="M528.23,105.93s13-6.18,14.78-9.75,1.87,8.83,1.87,8.83Z"/><path class="cls-2" d="M435,246.73a25.5,25.5,0,0,1,19.56-12.35s4.11,7.49-11.11,21C443.43,255.38,441.78,250.23,435,246.73Z"/><path class="cls-3" d="M438.92,249.57a14.08,14.08,0,0,1,12.85-4.34s1.6,5.13-8.91,11A14.92,14.92,0,0,0,438.92,249.57Z"/><path class="cls-3" d="M434,247.1A15.82,15.82,0,0,1,445.24,238s3.7,3.91-4.79,13.4A19.91,19.91,0,0,0,434,247.1Z"/><path class="cls-3" d="M435.19,247.11s-3.64,10.83,7.7,7.85C442.88,255,443,248.44,435.19,247.11Z"/><path class="cls-1" d="M515.81,119.46s3.14-2,13.17-.24-6.65-5.68-6.65-5.68l-5.89,5.14Z"/><path class="cls-1" d="M145.91,853a21.2,21.2,0,0,0,18.59-15.15c20.28-69,106.94-361.31,163.45-479.79,0,0,102-219.77,142.67-272.75a19.8,19.8,0,0,0,4.28-11.14c.24-5.62-2.3-10.7-16.5-1C435.2,89.06,246.87,338.64,97.14,827.79a21.29,21.29,0,0,0,22.11,27.45Z"/><path class="cls-1" d="M280,385.83s-25.46-72.47-12.61-100.43c-2.14-.26-15.33,9.42,4.49,116.48"/><path class="cls-1" d="M419.71,171.69S532.44,92.93,659.87,84.33a3.43,3.43,0,0,1,.89,0c5.67,1.07,66.46,12.18,96.6,4.14,0,0-53.38-.85-77.36-9.38a3.48,3.48,0,0,1-.32-6.45c6.08-2.78,15.75-7,26.61-10.85a3.48,3.48,0,0,0-1.64-6.72C691,57,671.86,60.77,645.57,67.72c0,0-159.75,44.69-215.4,84.42"/><path class="cls-1" d="M343.24,325.61s62.12-41.75,76.47-58.19,23.39-40.28,26.68-47.68c0,0-7.4,33.71-14,41.93s60-19.73,67.41-26.31,33.71-23.84,36.17-28.77c.54-1.07,1.5-3.66,2.76-7.09a3.48,3.48,0,0,1,6.7,1.72l-.07.53a3.45,3.45,0,0,0,4.3,3.73c9.14-2.36,29.4-8.41,38.85-17.79,0,0-32.47,26-42.52,30.35l-.3.15C539.95,221.63,367,325,329.72,346.35"/><path class="cls-1" d="M419.71,132.85s-1.63-4.4-3.36-10.06c-1.21-4-7.17-2.89-6.8,1.25a118.23,118.23,0,0,0,2.84,16.8"/><path d="M360.49,678l-1.26,6.29c52.78-10.54-5.77,132.78,1.88,157.17,27.72-1.82,35.74-29.2,55.64-41.8,30.34-19.22,29,3,13.32,24.59-39,53.69-109.19,82-109.19-9.83C295.35,840,241.45,873.71,220.3,824.54c-15.12-35.15,8.39-93,23.93-124.31,13.22-26.68,34.17-54.77,64.83-62.57C335.84,630.85,362.39,649,360.49,678ZM263,798.76c41.64-23.31,46.88-77.87,81.73-107.5-9.85-3-5.65-15-11.71-18.34-17.16-9.52-25.65,1.55-36.7,15.11C272.36,717.47,260.23,761.11,263,798.76Z"/><path d="M573.11,496.65c-13.18,63-37.53,126.05-68.19,182.51-22.93,42.21-75.65,76.91-50.08,127.67,30.33,60.21,96.41-27.67,125.7-44.55,33.26-19.17,26.36,10.21,8.77,30.55-19.42,22.45-42.46,43.13-68.87,57C371.67,928.19,402.23,662.73,419.92,589.34c13.41-55.62,33.55-117.9,74.07-160.18,16.81-17.54,45.71-40.66,69.76-21.08C587.59,427.48,578.14,471.49,573.11,496.65ZM484.46,548.2a458.8,458.8,0,0,0-38.35,171.63c46-65,89.74-182.15,87.39-261.53C511.06,485.12,498.19,516.47,484.46,548.2Z"/><path d="M721.89,513.56c-11.07,52.85-30.51,105.15-53.65,153.84-13.15,27.67-28,55.73-46.87,80-16.36,21-28.16,24.59-24,52.79,1.72,11.65,3.79,37.74,15.8,42.83,10.4,4.41,44-9.89,53.7-13.95,11.55-4.82,23.67-7.93,31.41-10.41,10.3-3.3,9-15.35,22.93-8,5.12,2.7,7.19,15.5,2.26,18.6,2.55-1.6,5.49-10.8,7.61-11.25-9.51,2-28.13,26.49-36.85,32.86-11.54,8.44-24.71,16.94-38,22.32-28.21,11.38-57.15,11-77.92-13.45-43.64-51.46-28.85-148.94-18.51-209.64,11.34-66.61,30.8-140.67,74.42-194,17.17-21,50.28-53.88,78.35-31C736.64,444.61,727,487.92,721.89,513.56Zm-88.65,51.55a458.87,458.87,0,0,0-38.35,171.63c46-65,89.76-182.16,87.39-261.53C659.85,502,647,533.38,633.24,565.11Z"/><path d="M792.89,678l-1.26,6.29c50.38-10.06,10.47,86.2,6.18,105.93C787,840.24,806,870,848.57,830.36c10.22-9.52,13.37-24.94,14.77-17.56,2.82,14.76-24.44,38.94-33.36,46.31-46.64,38.53-76.7,8.59-76.7-44.64C727.75,840,673.85,873.71,652.7,824.54c-15.12-35.15,8.39-93,23.93-124.31,13.22-26.68,34.17-54.77,64.83-62.57C768.24,630.85,794.8,649,792.89,678ZM695.45,798.76c41.64-23.31,46.88-77.87,81.73-107.5-9.85-3-5.66-15-11.71-18.34-17.16-9.52-25.65,1.55-36.7,15.11C704.76,717.48,692.64,761.1,695.45,798.76Z"/><path d="M890.92,848.41a19.41,19.41,0,0,1,3.46,11.95A19.72,19.72,0,0,1,890.92,871a12.8,12.8,0,0,1-8.49,5.34q-5.35.94-11.63-3.46-6.92-5-7.23-11.31a15.74,15.74,0,0,1,3.46-11,16.62,16.62,0,0,1,10.06-6Q883.37,843.39,890.92,848.41Zm48.41-397.32Q945,441,954.1,443.85T963.22,458q-8.18,41.5-12.57,83.61t-12.57,83.62q-7.54,41.49-18.55,81.41t-19.8,80.79a15,15,0,0,1-5.66,7.54,12.14,12.14,0,0,1-7.86,2.2,11.14,11.14,0,0,1-7.23-3.46q-3.16-3.13-3.77-8.8a852.07,852.07,0,0,1,14.46-170.37A789.19,789.19,0,0,1,939.33,451.09Z"/><path class="cls-4" d="M148.77,716.63S29.36,525.33,53.53,211.54c0,0,45.77,395.94,125.18,423.94"/><path class="cls-1" d="M602.62,81.13s12.09-12.83,8.88-20.38a18.4,18.4,0,0,1-2.62,19.39"/><path class="cls-2" d="M254.73,303a25.5,25.5,0,0,1-4-22.79s8.49-1,15.2,18.26C265.95,298.44,260.55,298,254.73,303Z"/><path class="cls-3" d="M258.86,300.4a14.08,14.08,0,0,1,.87-13.53s5.35.47,6.76,12.41A14.92,14.92,0,0,0,258.86,300.4Z"/><path class="cls-3" d="M254.69,304.06a15.82,15.82,0,0,1-4.09-13.88s5-1.93,10.57,9.52A19.91,19.91,0,0,0,254.69,304.06Z"/><path class="cls-3" d="M255.16,302.92s8.64,7.48,10.19-4.14C265.35,298.78,259.37,296.17,255.16,302.92Z"/><path class="cls-2" d="M430.74,241.32a25.5,25.5,0,0,1-4-22.79s8.49-1,15.2,18.26C442,236.79,436.57,236.36,430.74,241.32Z"/><path class="cls-3" d="M434.87,238.75a14.08,14.08,0,0,1,.87-13.53s5.35.47,6.76,12.41A14.92,14.92,0,0,0,434.87,238.75Z"/><path class="cls-3" d="M430.7,242.41a15.82,15.82,0,0,1-4.09-13.88s5-1.93,10.57,9.52A19.91,19.91,0,0,0,430.7,242.41Z"/><path class="cls-3" d="M431.18,241.27s8.64,7.48,10.19-4.14C441.37,237.13,435.39,234.52,431.18,241.27Z"/><path class="cls-2" d="M485,234.51a25.5,25.5,0,0,1,14.27-18.21s6.39,5.67-3.39,23.51C495.88,239.81,492.59,235.52,485,234.51Z"/><path class="cls-3" d="M488.93,235.43a15.82,15.82,0,0,1,11.1-9.29s3.78,3.83-4.51,13.49A19.91,19.91,0,0,0,488.93,235.43Z"/><path class="cls-3" d="M485.52,236.73A15.82,15.82,0,0,1,490.1,223s5.23,1.28,3.24,13.85A19.91,19.91,0,0,0,485.52,236.73Z"/><path class="cls-3" d="M485.33,234.8s.22,11.43,9.89,4.8C495.22,239.6,493.17,233.41,485.33,234.8Z"/><path class="cls-2" d="M406.14,138.77A19.86,19.86,0,0,1,392.53,127s4.66-4.75,18.16,3.57C410.69,130.52,407.22,132.91,406.14,138.77Z"/><path class="cls-3" d="M407.37,135.19a11,11,0,0,1-6.13-8.61s3.46-2.35,10.18,4.18A11.62,11.62,0,0,0,407.37,135.19Z"/><path class="cls-3" d="M406.65,139.45a12.32,12.32,0,0,1-9.29-6.38s2.08-3.64,11.07.56A15.51,15.51,0,0,0,406.65,139.45Z"/><path class="cls-3" d="M406.37,138.53s8.9.28,4.13-7.51C410.5,131,405.6,132.38,406.37,138.53Z"/><path class="cls-2" d="M406.47,122.34a19.86,19.86,0,0,1,1.08-18s6.6.8,8.24,16.57C415.79,120.92,411.78,119.62,406.47,122.34Z"/><path class="cls-3" d="M410.06,121.13a11,11,0,0,1,3.09-10.1s4,1.32,2.89,10.62A11.62,11.62,0,0,0,410.06,121.13Z"/><path class="cls-3" d="M406.24,123.16a12.32,12.32,0,0,1-.6-11.26s4.15-.56,6.3,9.12A15.51,15.51,0,0,0,406.24,123.16Z"/><path class="cls-3" d="M406.81,122.38s5.2,7.22,8.46-1.3C415.27,121.07,411.21,118,406.81,122.38Z"/><path class="cls-2" d="M527.76,110.93a19.86,19.86,0,0,1,16.08,8.13s-3.36,5.74-18.48,1C525.36,120,528.14,116.88,527.76,110.93Z"/><path class="cls-3" d="M527.44,114.71a11,11,0,0,1,8,6.85s-2.78,3.12-10.9-1.56A11.62,11.62,0,0,0,527.44,114.71Z"/><path class="cls-3" d="M527.09,110.4a12.32,12.32,0,0,1,10.57,3.91s-1.13,4-10.87,2.17A15.51,15.51,0,0,0,527.09,110.4Z"/><path class="cls-3" d="M527.58,111.23s-8.7,1.91-2.16,8.29C525.42,119.51,529.84,117,527.58,111.23Z"/><path class="cls-2" d="M541.24,96.92a19.86,19.86,0,0,1,13.95-11.41s3.89,5.4-6.59,17.29C548.61,102.81,546.84,99,541.24,96.92Z"/><path class="cls-3" d="M544.57,98.74a11,11,0,0,1,9.52-4.58s1.73,3.81-5.84,9.33A11.62,11.62,0,0,0,544.57,98.74Z"/><path class="cls-3" d="M540.49,97.31a12.32,12.32,0,0,1,7.86-8.08s3.23,2.67-2.42,10.81A15.51,15.51,0,0,0,540.49,97.31Z"/><path class="cls-3" d="M541.44,97.2s-1.78,8.72,6.7,5.34C548.14,102.54,547.64,97.48,541.44,97.2Z"/><path class="cls-2" d="M612.1,62.48A14.17,14.17,0,0,1,622,54.34s2.77,3.85-4.7,12.33A9.31,9.31,0,0,0,612.1,62.48Z"/><path class="cls-3" d="M614.47,63.77a7.82,7.82,0,0,1,6.79-3.27s1.23,2.72-4.17,6.65A8.29,8.29,0,0,0,614.47,63.77Z"/><path class="cls-3" d="M611.56,62.75A8.79,8.79,0,0,1,617.17,57s2.3,1.9-1.73,7.71A11.06,11.06,0,0,0,611.56,62.75Z"/><path class="cls-3" d="M612.24,62.67S611,68.89,617,66.48C617,66.48,616.66,62.87,612.24,62.67Z"/><path class="cls-2" d="M608.9,71.79A14.17,14.17,0,0,1,607.28,59s4.73-.31,8,10.53A9.31,9.31,0,0,0,608.9,71.79Z"/><path class="cls-3" d="M611.25,70.47a7.82,7.82,0,0,1,.83-7.49s3,.4,3.43,7.06A8.29,8.29,0,0,0,611.25,70.47Z"/><path class="cls-3" d="M608.85,72.39a8.79,8.79,0,0,1-1.91-7.81s2.84-.94,5.62,5.56A11.06,11.06,0,0,0,608.85,72.39Z"/><path class="cls-3" d="M609.14,71.77s4.6,4.38,5.76-2C614.9,69.74,611.65,68.13,609.14,71.77Z"/><path class="cls-2" d="M669.8,58.72a28.56,28.56,0,0,1,13.56-22.07s7.83,5.49-.78,26.59C682.58,63.24,678.37,58.88,669.8,58.72Z"/><path class="cls-3" d="M675.18,59.62a15.77,15.77,0,0,1,10.77-10.71s4.15,4.36-3.53,15.43A16.71,16.71,0,0,0,675.18,59.62Z"/><path class="cls-3" d="M669,59.61a17.71,17.71,0,0,1,6.87-14.68s5.65,2.1,1.81,15.83A22.3,22.3,0,0,0,669,59.61Z"/><path class="cls-3" d="M667.84,58.16s2.38,17.74,16.24,5.71C684.09,63.87,679.79,54.6,667.84,58.16Z"/><path class="cls-2" d="M703.77,53.19a14.17,14.17,0,0,1,11.18-6.34s2.08,4.26-6.71,11.36A9.31,9.31,0,0,0,703.77,53.19Z"/><path class="cls-3" d="M705.88,54.87a7.82,7.82,0,0,1,7.24-2.07s.76,2.89-5.23,5.85A8.29,8.29,0,0,0,705.88,54.87Z"/><path class="cls-3" d="M703.19,53.37a8.79,8.79,0,0,1,6.5-4.73s1.95,2.27-3,7.31A11.06,11.06,0,0,0,703.19,53.37Z"/><path class="cls-3" d="M703.87,53.41s-2.3,5.92,4.07,4.56C707.94,58,708.19,54.35,703.87,53.41Z"/><path class="cls-2" d="M716.15,84.15a14.17,14.17,0,0,1,8.34-9.78s3.41,3.29-2.43,13A9.31,9.31,0,0,0,716.15,84.15Z"/><path class="cls-3" d="M718.71,85a7.82,7.82,0,0,1,6.1-4.42s1.7,2.46-2.92,7.29A8.29,8.29,0,0,0,718.71,85Z"/><path class="cls-3" d="M715.66,84.52a8.79,8.79,0,0,1,4.49-6.67s2.61,1.46-.33,7.9A11.06,11.06,0,0,0,715.66,84.52Z"/><path class="cls-3" d="M716.32,84.32s-.14,6.35,5.38,2.89C721.7,87.21,720.7,83.73,716.32,84.32Z"/><path class="cls-2" d="M746.35,83.43a28.71,28.71,0,0,1,24.71-8.23s2.48,9.29-17.79,20C753.27,95.17,752.85,89.09,746.35,83.43Z"/><path class="cls-3" d="M750.23,86.49a15.85,15.85,0,0,1,14.22,5.56s-2.33,4.71-15.62,2.13C748.83,94.18,750.71,91.41,750.23,86.49Z"/><path class="cls-3" d="M746.14,85.8a17.81,17.81,0,0,1,9-13.56s5.3,2.94-.58,16A22.42,22.42,0,0,0,746.14,85.8Z"/><path class="cls-3" d="M746.48,83.91s-6.89,10.86,6.3,10.65C752.78,94.56,754.7,87.47,746.48,83.91Z"/><path class="cls-2" d="M471.49,77.18a19.86,19.86,0,0,1,16.69-6.79S490.3,76.7,476.79,85C476.79,85,476.23,80.8,471.49,77.18Z"/><path class="cls-3" d="M474.13,79.9a11,11,0,0,1,10.45-1.57s.53,4.15-8.33,7.19A11.62,11.62,0,0,0,474.13,79.9Z"/><path class="cls-3" d="M470.65,77.33a12.32,12.32,0,0,1,9.9-5.4s2.3,3.5-5.5,9.62A15.51,15.51,0,0,0,470.65,77.33Z"/><path class="cls-3" d="M471.6,77.5s-4.27,7.81,4.83,7.07C476.43,84.58,477.43,79.6,471.6,77.5Z"/><path class="cls-2" d="M438.47,89.89A19.86,19.86,0,0,1,444.62,73s6.1,2.65,3.19,18.23C447.8,91.19,444.33,88.8,438.47,89.89Z"/><path class="cls-3" d="M442.25,89.76A11,11,0,0,1,448.09,81s3.43,2.39-.25,11A11.62,11.62,0,0,0,442.25,89.76Z"/><path class="cls-3" d="M438,90.61a12.32,12.32,0,0,1,2.62-11s4.14.64,3.45,10.53A15.51,15.51,0,0,0,438,90.61Z"/><path class="cls-3" d="M438.78,90s2.93,8.41,8.49,1.16C447.27,91.19,444.24,87.1,438.78,90Z"/><path class="cls-2" d="M459.42,95.93a14.81,14.81,0,0,1,13.29-2s.44,4.94-10.81,8.58A9.74,9.74,0,0,0,459.42,95.93Z"/><path class="cls-3" d="M460.86,98.37a8.18,8.18,0,0,1,7.85.69s-.34,3.1-7.3,3.76A8.67,8.67,0,0,0,460.86,98.37Z"/><path class="cls-3" d="M458.79,95.89a9.19,9.19,0,0,1,8.12-2.19s1.05,2.94-5.67,6A11.57,11.57,0,0,0,458.79,95.89Z"/><path class="cls-3" d="M459.44,96.19s-4.46,4.91,2.26,6C461.71,102.16,463.31,98.72,459.44,96.19Z"/><path class="cls-2" d="M458.87,72.78a5.28,5.28,0,0,1,.34-4.78s1.75.23,2.14,4.43A3.47,3.47,0,0,0,458.87,72.78Z"/><path class="cls-3" d="M459.83,72.47a2.92,2.92,0,0,1,.85-2.68s1.05.36.74,2.83A3.09,3.09,0,0,0,459.83,72.47Z"/><path class="cls-3" d="M458.81,73a3.28,3.28,0,0,1-.13-3s1.11-.14,1.65,2.44A4.13,4.13,0,0,0,458.81,73Z"/><path class="cls-3" d="M459,72.79s1.36,1.94,2.26-.32A1.7,1.7,0,0,0,459,72.79Z"/><path class="cls-2" d="M472.83,69.89a11.59,11.59,0,0,1,9.74-4s1.24,3.68-6.64,8.51A7.61,7.61,0,0,0,472.83,69.89Z"/><path class="cls-3" d="M474.37,71.47a6.4,6.4,0,0,1,6.09-.92s.31,2.42-4.86,4.2A6.78,6.78,0,0,0,474.37,71.47Z"/><path class="cls-3" d="M472.34,70a7.19,7.19,0,0,1,5.77-3.15s1.34,2-3.21,5.61A9,9,0,0,0,472.34,70Z"/><path class="cls-3" d="M472.9,70.08s-2.49,4.56,2.82,4.13C475.71,74.2,476.3,71.3,472.9,70.08Z"/><path class="cls-2" d="M465.73,68.93a11.59,11.59,0,0,1,4.62-9.44s3.38,1.91.72,10.77A7.61,7.61,0,0,0,465.73,68.93Z"/><path class="cls-3" d="M467.93,69.08a6.4,6.4,0,0,1,3.93-4.75s1.84,1.6-.83,6.37A6.78,6.78,0,0,0,467.93,69.08Z"/><path class="cls-3" d="M465.42,69.32a7.19,7.19,0,0,1,2.2-6.2s2.36.63,1.35,6.32A9,9,0,0,0,465.42,69.32Z"/><path class="cls-3" d="M465.9,69s1.18,5.06,4.85,1.2C470.75,70.22,469.25,67.67,465.9,69Z"/><path class="cls-2" d="M451.89,80.68a7.46,7.46,0,0,1,.44-6.76s2.48.32,3.06,6.24A4.91,4.91,0,0,0,451.89,80.68Z"/><path class="cls-3" d="M453.25,80.23a4.12,4.12,0,0,1,1.18-3.79s1.49.5,1.06,4A4.37,4.37,0,0,0,453.25,80.23Z"/><path class="cls-3" d="M451.81,81a4.63,4.63,0,0,1-.2-4.23s1.56-.2,2.35,3.44A5.83,5.83,0,0,0,451.81,81Z"/><path class="cls-3" d="M452,80.69s1.94,2.73,3.18-.47A2.4,2.4,0,0,0,452,80.69Z"/><path class="cls-2" d="M442.92,222.37A25.5,25.5,0,0,1,462.48,210s4.11,7.49-11.11,21C451.37,231,449.72,225.87,442.92,222.37Z"/><path class="cls-3" d="M446.87,225.21a14.08,14.08,0,0,1,12.85-4.34s1.6,5.13-8.91,11A14.92,14.92,0,0,0,446.87,225.21Z"/><path class="cls-3" d="M441.89,222.74a15.82,15.82,0,0,1,11.29-9.06s3.7,3.91-4.79,13.4A19.91,19.91,0,0,0,441.89,222.74Z"/><path class="cls-3" d="M443.13,222.75s-3.64,10.83,7.7,7.85C450.83,230.6,451,224.08,443.13,222.75Z"/><path class="cls-2" d="M570.56,193.34A25.5,25.5,0,0,1,590.12,181s4.11,7.49-11.11,21C579,202,577.36,196.84,570.56,193.34Z"/><path class="cls-3" d="M574.51,196.18a14.08,14.08,0,0,1,12.85-4.34s1.6,5.13-8.91,11A14.92,14.92,0,0,0,574.51,196.18Z"/><path class="cls-3" d="M569.53,193.72a15.82,15.82,0,0,1,11.29-9.06s3.7,3.91-4.79,13.4A19.91,19.91,0,0,0,569.53,193.72Z"/><path class="cls-3" d="M570.77,193.72s-3.64,10.83,7.7,7.85C578.47,201.57,578.62,195,570.77,193.72Z"/><path class="cls-2" d="M542.24,202.24a13.88,13.88,0,0,1,10.64-6.72s2.24,4.07-6,11.43A9.12,9.12,0,0,0,542.24,202.24Z"/><path class="cls-3" d="M544.39,203.78a7.66,7.66,0,0,1,7-2.36s.87,2.79-4.85,6A8.12,8.12,0,0,0,544.39,203.78Z"/><path class="cls-3" d="M541.68,202.44a8.61,8.61,0,0,1,6.14-4.93s2,2.13-2.6,7.29A10.84,10.84,0,0,0,541.68,202.44Z"/><path class="cls-3" d="M542.35,202.44s-2,5.9,4.19,4.27C546.54,206.71,546.62,203.16,542.35,202.44Z"/><path class="cls-2" d="M536.4,200a22.3,22.3,0,0,1,5.13-19.56s7.09,2.33,5.44,20C547,200.47,542.84,198.16,536.4,200Z"/><path class="cls-3" d="M540.62,199.45A12.31,12.31,0,0,1,546.24,189s4.08,2.32.85,12.33A13,13,0,0,0,540.62,199.45Z"/><path class="cls-3" d="M536,200.84a13.83,13.83,0,0,1,1.8-12.53s4.69.29,4.94,11.42A17.41,17.41,0,0,0,536,200.84Z"/><path class="cls-3" d="M536.76,200.11s4.14,9.09,9.6.42C546.37,200.53,542.57,196.27,536.76,200.11Z"/><path class="cls-2" d="M273.55,293.71a25,25,0,0,0,10.14-20.26s-7.7-3.28-19.39,12.86C264.3,286.31,269.48,287.42,273.55,293.71Z"/><path class="cls-3" d="M270.45,290s7.11-9.12,7-21c0,0-5.56-.24-13.84,17.87A9,9,0,0,1,270.45,290Z"/><path class="cls-3" d="M273.29,294.74s9.93-6.46,13.63-17.72c0,0-4.46-2.93-18.18,11.5C268.73,288.53,271.41,290.05,273.29,294.74Z"/><path class="cls-3" d="M273.16,293.54s-10.21,4.6-8.4-6.74C264.76,286.8,271.11,286,273.16,293.54Z"/><path class="cls-2" d="M271,327.55a25,25,0,0,0,3.36-22.41s-8.33-.73-14.46,18.23C259.89,323.38,265.16,322.83,271,327.55Z"/><path class="cls-3" d="M266.9,325s3.94-10.87.12-22.09c0,0-5.36,1.49-7.63,21.28A9,9,0,0,1,266.9,325Z"/><path class="cls-3" d="M271,328.62s7.44-9.22,7.48-21.07c0,0-5.15-1.41-13.73,16.57C264.8,324.12,267.82,324.74,271,328.62Z"/><path class="cls-3" d="M270.56,327.52s-8.28,7.53-10.07-3.81C260.48,323.7,266.27,321,270.56,327.52Z"/></svg>